<?xml version="1.0" encoding="iso-8859-1"?>
<!-- Uploaded to: SVG Repo, www.svgrepo.com, Generator: SVG Repo Mixer Tools -->
<!DOCTYPE svg PUBLIC "-//W3C//DTD SVG 1.1//EN" "http://www.w3.org/Graphics/SVG/1.1/DTD/svg11.dtd">
<svg fill="#000000" height="800px" width="800px" version="1.1" id="Capa_1" xmlns="http://www.w3.org/2000/svg" xmlns:xlink="http://www.w3.org/1999/xlink" 
	 viewBox="0 0 490 490" xml:space="preserve">
<g>
	<g>
		<g>
			<g>
				<g>
					<circle cx="426.445" cy="398.018" r="16.851"/>
					<circle cx="361.054" cy="398.018" r="16.851"/>
				</g>
				<circle cx="128.854" cy="398.018" r="16.851"/>
			</g>
			<circle cx="63.464" cy="398.018" r="16.851"/>
		</g>
		<path d="M476.051,356.541H13.95C6.258,356.541,0,362.799,0,370.49v14.135c0,7.691,6.258,13.949,13.95,13.949h19.362
			c1.461,0,2.676-1.127,2.782-2.586c1.047-14.256,13.067-25.424,27.368-25.424c14.301,0,26.323,11.168,27.369,25.424
			c0.107,1.459,1.321,2.586,2.783,2.586h5.088c1.461,0,2.676-1.127,2.782-2.586c1.046-14.256,13.068-25.424,27.37-25.424
			c14.3,0,26.321,11.168,27.367,25.424c0.107,1.459,1.321,2.586,2.783,2.586c42.975,0,128.923,0,171.897,0
			c1.461,0,2.675-1.127,2.782-2.586c1.046-14.256,13.067-25.424,27.368-25.424c14.3,0,26.323,11.168,27.369,25.424
			c0.107,1.459,1.321,2.586,2.782,2.586h5.088c1.462,0,2.676-1.127,2.783-2.586c1.046-14.256,13.068-25.424,27.369-25.424
			c14.301,0,26.322,11.168,27.368,25.424c0.106,1.459,1.321,2.586,2.782,2.586h19.455c7.692,0,13.949-6.258,13.949-13.949V370.49
			C490,362.799,483.743,356.541,476.051,356.541z"/>
	</g>
	<path d="M460.893,75.131H29.016C12.991,75.131,0,88.121,0,104.146v193.061c0,16.025,12.991,29.016,29.016,29.016h431.877
		c16.024,0,29.016-12.99,29.016-29.016V104.146C489.908,88.121,476.917,75.131,460.893,75.131z M91.618,267.463
		c0,11.82-10.002,21.402-22.339,21.402c-12.338,0-22.339-9.582-22.339-21.402V133.891c0-11.82,10.001-21.402,22.339-21.402
		c12.337,0,22.339,9.582,22.339,21.402V267.463z M179.455,267.463c0,11.82-10,21.402-22.338,21.402
		c-12.338,0-22.34-9.582-22.34-21.402V133.891c0-11.82,10.002-21.402,22.34-21.402c12.338,0,22.338,9.582,22.338,21.402V267.463z
		 M267.293,267.463c0,11.82-10.002,21.402-22.339,21.402s-22.339-9.582-22.339-21.402V133.891c0-11.82,10.002-21.402,22.339-21.402
		s22.339,9.582,22.339,21.402V267.463z M355.132,267.463c0,11.82-10.003,21.402-22.339,21.402c-12.339,0-22.339-9.582-22.339-21.402
		V133.891c0-11.82,10-21.402,22.339-21.402c12.336,0,22.339,9.582,22.339,21.402V267.463z M442.968,267.463
		c0,11.82-10,21.402-22.337,21.402c-12.339,0-22.341-9.582-22.341-21.402V133.891c0-11.82,10.002-21.402,22.341-21.402
		c12.337,0,22.337,9.582,22.337,21.402V267.463z"/>
</g>
</svg>